<svg width="697" height="223" viewBox="0 0 697 223" fill="none" xmlns="http://www.w3.org/2000/svg">
<path d="M502.348 202.062C500.588 202.062 498.628 201.862 496.468 201.462C494.348 201.062 492.108 200.442 489.748 199.602C487.748 198.882 485.788 198.002 483.868 196.962C481.988 195.922 480.128 194.842 478.288 193.722C476.288 194.562 474.148 195.202 471.868 195.642C469.588 196.082 467.208 196.302 464.728 196.302C463.888 196.302 463.068 196.262 462.268 196.182C461.508 196.142 460.788 196.082 460.108 196.002C457.588 197.162 454.968 197.982 452.248 198.462C451.488 198.582 450.708 198.682 449.908 198.762C449.108 198.842 448.308 198.882 447.508 198.882C445.708 198.882 444.028 198.642 442.468 198.162C440.908 197.722 439.648 196.962 438.688 195.882C437.688 194.802 437.188 193.322 437.188 191.442C437.188 190.802 437.248 190.162 437.368 189.522C437.448 189.282 437.588 189.162 437.788 189.162C438.028 189.162 438.148 189.262 438.148 189.462C438.148 189.662 438.148 189.862 438.148 190.062C438.108 190.302 438.088 190.522 438.088 190.722C438.088 192.442 438.588 193.842 439.588 194.922C440.548 196.002 441.808 196.802 443.368 197.322C444.928 197.842 446.568 198.102 448.288 198.102C450.248 198.102 452.128 197.822 453.928 197.262C454.608 197.062 455.268 196.822 455.908 196.542C456.588 196.262 457.248 195.942 457.888 195.582C455.448 194.982 453.408 194.142 451.768 193.062C450.168 191.982 448.968 190.782 448.168 189.462C447.408 188.182 447.028 186.942 447.028 185.742C447.028 184.302 447.568 183.082 448.648 182.082C449.728 181.042 451.308 180.522 453.388 180.522C454.828 180.522 456.468 180.822 458.308 181.422C460.068 181.982 461.808 182.622 463.528 183.342C465.288 184.062 467.028 184.822 468.748 185.622C470.628 183.142 472.388 180.542 474.028 177.822C475.668 175.102 477.168 172.502 478.528 170.022C477.408 170.142 476.288 170.202 475.168 170.202C471.048 170.202 467.468 169.742 464.428 168.822C461.388 167.862 458.868 166.602 456.868 165.042C454.868 163.482 453.388 161.742 452.428 159.822C451.468 157.902 450.988 155.962 450.988 154.002C450.988 151.682 451.628 149.502 452.908 147.462C454.228 145.382 456.148 143.702 458.668 142.422C461.228 141.142 464.348 140.502 468.028 140.502C470.708 140.502 473.368 140.922 476.008 141.762C478.688 142.602 481.208 143.842 483.568 145.482C485.928 147.082 487.948 149.022 489.628 151.302C491.988 147.942 494.288 145.242 496.528 143.202C498.768 141.162 500.888 139.862 502.888 139.302C503.688 139.102 504.388 139.002 504.988 139.002C506.468 139.002 507.768 139.462 508.888 140.382C510.008 141.302 510.568 142.782 510.568 144.822C510.568 147.942 509.848 150.802 508.408 153.402C507.008 156.002 505.108 158.302 502.708 160.302C500.348 162.302 497.728 164.002 494.848 165.402C494.968 166.522 495.028 167.642 495.028 168.762C495.028 173.722 493.848 178.222 491.488 182.262C489.168 186.302 485.928 189.542 481.768 191.982C483.368 192.702 484.968 193.402 486.568 194.082C488.168 194.802 489.788 195.442 491.428 196.002C493.548 196.762 495.668 197.342 497.788 197.742C499.908 198.142 501.888 198.342 503.728 198.342C506.448 198.342 508.668 197.882 510.388 196.962C512.148 196.082 513.028 194.662 513.028 192.702C513.028 192.222 512.968 191.722 512.848 191.202C512.768 190.682 512.608 190.142 512.368 189.582C512.368 189.542 512.348 189.502 512.308 189.462C512.308 189.462 512.308 189.442 512.308 189.402C512.308 189.082 512.468 188.922 512.788 188.922C512.948 188.922 513.088 189.022 513.208 189.222C513.848 190.782 514.168 192.262 514.168 193.662C514.168 196.262 513.108 198.302 510.988 199.782C508.908 201.302 506.028 202.062 502.348 202.062ZM494.728 164.442C497.528 163.042 500.048 161.362 502.288 159.402C504.528 157.442 506.308 155.242 507.628 152.802C508.988 150.362 509.668 147.702 509.668 144.822C509.668 143.142 509.208 141.882 508.288 141.042C507.368 140.202 506.288 139.782 505.048 139.782C504.248 139.782 503.448 139.962 502.648 140.322C500.888 141.122 499.028 142.722 497.068 145.122C495.148 147.522 493.208 150.402 491.248 153.762C491.648 154.402 491.988 155.062 492.268 155.742C492.588 156.422 492.868 157.122 493.108 157.842C493.868 160.042 494.408 162.242 494.728 164.442ZM475.168 169.302C475.808 169.302 476.448 169.282 477.088 169.242C477.768 169.162 478.428 169.102 479.068 169.062L481.768 164.142C482.968 161.942 484.168 159.882 485.368 157.962C486.568 156.002 487.728 154.182 488.848 152.502C487.288 150.142 485.388 148.142 483.148 146.502C480.908 144.862 478.488 143.602 475.888 142.722C473.288 141.842 470.668 141.402 468.028 141.402C464.908 141.402 462.268 142.002 460.108 143.202C457.948 144.402 456.288 145.962 455.128 147.882C454.008 149.802 453.448 151.862 453.448 154.062C453.448 155.902 453.868 157.722 454.708 159.522C455.588 161.322 456.908 162.962 458.668 164.442C460.468 165.922 462.728 167.102 465.448 167.982C468.168 168.862 471.408 169.302 475.168 169.302ZM484.168 168.222C485.688 167.862 487.208 167.422 488.728 166.902C490.288 166.382 491.808 165.802 493.288 165.162C493.048 162.842 492.508 160.482 491.668 158.082C491.508 157.602 491.308 157.122 491.068 156.642C490.868 156.162 490.668 155.702 490.468 155.262C489.468 157.022 488.488 158.882 487.528 160.842C486.568 162.802 485.628 164.842 484.708 166.962L484.168 168.222ZM480.388 191.262C484.428 188.902 487.608 185.702 489.928 181.662C492.288 177.622 493.468 173.182 493.468 168.342C493.468 167.982 493.448 167.622 493.408 167.262C493.408 166.862 493.388 166.462 493.348 166.062C491.788 166.782 490.188 167.402 488.548 167.922C486.948 168.442 485.328 168.862 483.688 169.182C482.208 172.462 480.468 175.642 478.468 178.722C476.508 181.762 474.328 184.562 471.928 187.122C473.328 187.802 474.728 188.482 476.128 189.162C477.568 189.882 478.988 190.582 480.388 191.262ZM459.028 194.862C460.628 193.862 462.148 192.682 463.588 191.322C465.028 189.962 466.408 188.482 467.728 186.882C466.128 185.922 464.528 185.042 462.928 184.242C461.328 183.442 459.708 182.782 458.068 182.262C456.628 181.822 455.408 181.602 454.408 181.602C452.728 181.602 451.448 182.042 450.568 182.922C449.728 183.762 449.308 184.802 449.308 186.042C449.308 187.122 449.648 188.242 450.328 189.402C451.048 190.602 452.128 191.682 453.568 192.642C455.008 193.602 456.828 194.342 459.028 194.862ZM464.428 195.402C469.108 195.402 473.328 194.582 477.088 192.942L470.488 188.622C469.128 189.942 467.708 191.162 466.228 192.282C464.748 193.402 463.188 194.402 461.548 195.282C461.988 195.322 462.448 195.342 462.928 195.342C463.408 195.382 463.908 195.402 464.428 195.402ZM520.505 188.862C518.785 188.862 517.565 188.282 516.845 187.122C516.125 185.922 515.765 184.562 515.765 183.042C515.765 182.122 515.865 181.222 516.065 180.342C516.265 179.462 516.505 178.642 516.785 177.882C517.225 176.802 517.845 175.662 518.645 174.462C519.485 173.222 520.485 172.162 521.645 171.282C522.805 170.402 524.065 169.962 525.425 169.962C526.545 169.962 527.325 170.282 527.765 170.922C528.205 171.522 528.425 172.282 528.425 173.202C528.425 173.362 528.425 173.522 528.425 173.682C528.425 173.802 528.405 173.962 528.365 174.162C528.245 175.242 527.825 176.362 527.105 177.522C526.385 178.682 525.485 179.662 524.405 180.462C523.325 181.222 522.165 181.602 520.925 181.602C520.205 181.602 519.565 181.402 519.005 181.002C518.645 182.362 518.465 183.602 518.465 184.722C518.465 185.642 518.625 186.402 518.945 187.002C519.305 187.602 519.845 187.902 520.565 187.902C521.405 187.902 522.405 187.542 523.565 186.822C524.765 186.062 526.045 184.782 527.405 182.982C528.805 181.182 530.225 178.722 531.665 175.602C531.665 175.562 531.705 175.542 531.785 175.542C531.905 175.542 532.025 175.602 532.145 175.722C532.305 175.802 532.345 175.882 532.265 175.962C530.305 180.402 528.225 183.662 526.025 185.742C523.865 187.822 522.025 188.862 520.505 188.862ZM520.625 180.642C521.505 180.642 522.365 180.322 523.205 179.682C524.045 179.002 524.805 178.162 525.485 177.162C526.165 176.122 526.705 175.082 527.105 174.042C527.265 173.602 527.345 173.102 527.345 172.542C527.345 172.022 527.245 171.582 527.045 171.222C526.885 170.822 526.585 170.622 526.145 170.622C525.425 170.622 524.645 171.082 523.805 172.002C522.965 172.882 522.185 173.942 521.465 175.182C520.745 176.382 520.205 177.482 519.845 178.482C519.725 178.762 519.605 179.062 519.485 179.382C519.405 179.662 519.325 179.962 519.245 180.282C519.725 180.522 520.185 180.642 520.625 180.642ZM549.094 188.502C548.174 188.502 547.514 188.162 547.114 187.482C546.714 186.802 546.514 186.002 546.514 185.082C546.514 183.842 546.774 182.602 547.294 181.362C548.134 179.162 548.914 177.262 549.634 175.662C550.394 174.062 551.154 172.522 551.914 171.042H550.294C550.134 171.042 550.054 170.962 550.054 170.802C550.054 170.682 550.114 170.542 550.234 170.382C550.354 170.222 550.494 170.142 550.654 170.142H552.394L556.714 161.502C557.394 161.342 558.114 161.162 558.874 160.962C559.674 160.722 560.394 160.462 561.034 160.182C560.394 161.262 559.514 162.682 558.394 164.442C557.274 166.162 556.134 168.062 554.974 170.142H559.234C559.394 170.142 559.474 170.222 559.474 170.382C559.474 170.502 559.414 170.642 559.294 170.802C559.174 170.962 559.034 171.042 558.874 171.042H554.434C553.194 173.242 552.074 175.522 551.074 177.882C550.114 180.242 549.474 182.462 549.154 184.542C549.114 184.702 549.094 184.882 549.094 185.082C549.094 185.242 549.094 185.382 549.094 185.502C549.094 186.582 549.454 187.122 550.174 187.122C550.614 187.122 551.114 186.942 551.674 186.582C552.234 186.182 552.774 185.722 553.294 185.202C554.574 183.922 555.674 182.502 556.594 180.942C557.554 179.382 558.434 177.802 559.234 176.202C559.314 176.122 559.374 176.082 559.414 176.082C559.694 176.082 559.834 176.242 559.834 176.562C559.794 176.562 559.674 176.742 559.474 177.102C559.314 177.462 559.214 177.662 559.174 177.702C558.454 179.102 557.714 180.442 556.954 181.722C556.194 183.002 555.274 184.222 554.194 185.382C553.594 186.022 552.834 186.702 551.914 187.422C550.994 188.142 550.054 188.502 549.094 188.502ZM576.937 188.502C576.017 188.502 575.357 188.162 574.957 187.482C574.557 186.802 574.357 186.002 574.357 185.082C574.357 183.842 574.617 182.602 575.137 181.362C575.977 179.162 576.757 177.262 577.477 175.662C578.237 174.062 578.997 172.522 579.757 171.042H578.137C577.977 171.042 577.897 170.962 577.897 170.802C577.897 170.682 577.957 170.542 578.077 170.382C578.197 170.222 578.337 170.142 578.497 170.142H580.237L584.557 161.502C585.237 161.342 585.957 161.162 586.717 160.962C587.517 160.722 588.237 160.462 588.877 160.182C588.237 161.262 587.357 162.682 586.237 164.442C585.117 166.162 583.977 168.062 582.817 170.142H587.077C587.237 170.142 587.317 170.222 587.317 170.382C587.317 170.502 587.257 170.642 587.137 170.802C587.017 170.962 586.877 171.042 586.717 171.042H582.277C581.037 173.242 579.917 175.522 578.917 177.882C577.957 180.242 577.317 182.462 576.997 184.542C576.957 184.702 576.937 184.882 576.937 185.082C576.937 185.242 576.937 185.382 576.937 185.502C576.937 186.582 577.297 187.122 578.017 187.122C578.457 187.122 578.957 186.942 579.517 186.582C580.077 186.182 580.617 185.722 581.137 185.202C582.417 183.922 583.517 182.502 584.437 180.942C585.397 179.382 586.277 177.802 587.077 176.202C587.157 176.122 587.217 176.082 587.257 176.082C587.537 176.082 587.677 176.242 587.677 176.562C587.637 176.562 587.517 176.742 587.317 177.102C587.157 177.462 587.057 177.662 587.017 177.702C586.297 179.102 585.557 180.442 584.797 181.722C584.037 183.002 583.117 184.222 582.037 185.382C581.437 186.022 580.677 186.702 579.757 187.422C578.837 188.142 577.897 188.502 576.937 188.502ZM608.021 188.862C606.301 188.862 605.081 188.282 604.361 187.122C603.641 185.922 603.281 184.562 603.281 183.042C603.281 182.122 603.381 181.222 603.581 180.342C603.781 179.462 604.021 178.642 604.301 177.882C604.741 176.802 605.361 175.662 606.161 174.462C607.001 173.222 608.001 172.162 609.161 171.282C610.321 170.402 611.581 169.962 612.941 169.962C614.061 169.962 614.841 170.282 615.281 170.922C615.721 171.522 615.941 172.282 615.941 173.202C615.941 173.362 615.941 173.522 615.941 173.682C615.941 173.802 615.921 173.962 615.881 174.162C615.761 175.242 615.341 176.362 614.621 177.522C613.901 178.682 613.001 179.662 611.921 180.462C610.841 181.222 609.681 181.602 608.441 181.602C607.721 181.602 607.081 181.402 606.521 181.002C606.161 182.362 605.981 183.602 605.981 184.722C605.981 185.642 606.141 186.402 606.461 187.002C606.821 187.602 607.361 187.902 608.081 187.902C608.921 187.902 609.921 187.542 611.081 186.822C612.281 186.062 613.561 184.782 614.921 182.982C616.321 181.182 617.741 178.722 619.181 175.602C619.181 175.562 619.221 175.542 619.301 175.542C619.421 175.542 619.541 175.602 619.661 175.722C619.821 175.802 619.861 175.882 619.781 175.962C617.821 180.402 615.741 183.662 613.541 185.742C611.381 187.822 609.541 188.862 608.021 188.862ZM608.141 180.642C609.021 180.642 609.881 180.322 610.721 179.682C611.561 179.002 612.321 178.162 613.001 177.162C613.681 176.122 614.221 175.082 614.621 174.042C614.781 173.602 614.861 173.102 614.861 172.542C614.861 172.022 614.761 171.582 614.561 171.222C614.401 170.822 614.101 170.622 613.661 170.622C612.941 170.622 612.161 171.082 611.321 172.002C610.481 172.882 609.701 173.942 608.981 175.182C608.261 176.382 607.721 177.482 607.361 178.482C607.241 178.762 607.121 179.062 607.001 179.382C606.921 179.662 606.841 179.962 606.761 180.282C607.241 180.522 607.701 180.642 608.141 180.642ZM640.989 188.562C639.309 188.562 638.469 187.622 638.469 185.742C638.469 185.022 638.609 184.162 638.889 183.162C639.169 182.162 639.609 181.062 640.209 179.862C640.529 179.142 640.969 178.282 641.529 177.282C642.089 176.242 642.589 175.222 643.029 174.222C643.509 173.222 643.749 172.422 643.749 171.822C643.749 171.222 643.429 170.922 642.789 170.922C642.509 170.922 642.149 171.002 641.709 171.162C641.269 171.282 640.669 171.442 639.909 171.642C639.589 172.442 639.069 173.562 638.349 175.002C637.669 176.402 636.909 177.842 636.069 179.322C635.229 180.802 634.429 182.082 633.669 183.162C633.669 183.162 633.649 183.182 633.609 183.222C633.609 183.222 633.569 183.222 633.489 183.222C633.409 183.222 633.289 183.202 633.129 183.162C633.009 183.082 632.969 183.022 633.009 182.982C633.649 182.062 634.309 181.002 634.989 179.802C635.669 178.562 636.309 177.342 636.909 176.142C637.549 174.942 638.069 173.922 638.469 173.082C638.909 172.202 639.149 171.682 639.189 171.522C638.589 171.322 638.109 170.862 637.749 170.142C637.429 169.382 637.269 168.622 637.269 167.862C637.269 167.182 637.429 166.602 637.749 166.122C638.069 165.642 638.549 165.402 639.189 165.402C639.669 165.402 639.989 165.662 640.149 166.182C640.349 166.662 640.449 167.242 640.449 167.922C640.449 168.802 640.349 169.682 640.149 170.562C640.149 170.562 640.369 170.522 640.809 170.442C641.249 170.362 641.769 170.302 642.369 170.262C642.969 170.182 643.489 170.142 643.929 170.142C645.249 170.142 645.909 170.782 645.909 172.062C645.909 172.862 645.689 173.902 645.249 175.182C644.809 176.422 644.249 177.862 643.569 179.502C642.209 182.742 641.529 185.022 641.529 186.342C641.529 187.142 641.789 187.542 642.309 187.542C642.949 187.542 643.849 187.022 645.009 185.982C646.169 184.942 647.229 183.642 648.189 182.082C649.189 180.482 650.409 178.342 651.849 175.662C651.889 175.582 651.949 175.542 652.029 175.542C652.149 175.542 652.249 175.602 652.329 175.722C652.449 175.802 652.489 175.882 652.449 175.962C650.249 180.122 648.329 183.262 646.689 185.382C645.049 187.502 643.149 188.562 640.989 188.562ZM665.418 212.262C664.778 212.262 664.278 212.042 663.918 211.602C663.518 211.202 663.318 210.582 663.318 209.742C663.318 209.062 663.478 208.262 663.798 207.342C664.078 206.422 664.538 205.382 665.178 204.222C665.978 202.782 666.918 201.302 667.998 199.782C669.078 198.262 670.198 196.822 671.358 195.462C672.558 194.102 673.698 192.922 674.778 191.922C675.858 190.922 676.758 190.242 677.478 189.882C677.638 189.482 677.858 188.842 678.138 187.962C678.458 187.082 678.778 186.162 679.098 185.202C679.418 184.202 679.698 183.362 679.938 182.682C680.178 182.002 680.298 181.662 680.298 181.662C680.138 181.902 679.818 182.382 679.338 183.102C678.858 183.822 678.238 184.622 677.478 185.502C676.758 186.342 675.958 187.062 675.078 187.662C674.198 188.262 673.278 188.562 672.318 188.562C670.758 188.562 669.978 187.722 669.978 186.042C669.978 184.642 670.598 182.602 671.838 179.922C672.198 179.202 672.598 178.342 673.038 177.342C673.518 176.342 673.918 175.382 674.238 174.462C674.598 173.502 674.778 172.722 674.778 172.122C674.778 171.562 674.578 171.282 674.178 171.282C673.698 171.282 673.218 171.582 672.738 172.182C672.258 172.782 671.818 173.462 671.418 174.222C671.058 174.942 670.758 175.522 670.518 175.962C669.918 177.122 669.238 178.402 668.478 179.802C667.718 181.162 666.958 182.362 666.198 183.402H666.138C666.058 183.402 665.938 183.342 665.778 183.222C665.618 183.102 665.558 183.022 665.598 182.982C666.398 181.942 667.158 180.742 667.878 179.382C668.638 178.022 669.298 176.782 669.858 175.662C670.258 174.822 670.718 173.942 671.238 173.022C671.758 172.102 672.358 171.342 673.038 170.742C673.838 170.062 674.638 169.722 675.438 169.722C675.998 169.722 676.458 169.902 676.818 170.262C677.178 170.582 677.358 171.082 677.358 171.762C677.358 171.922 677.338 172.082 677.298 172.242C677.298 172.402 677.278 172.582 677.238 172.782C677.078 173.542 676.798 174.482 676.398 175.602C676.038 176.682 675.538 177.982 674.898 179.502C673.498 182.822 672.798 185.122 672.798 186.402C672.798 187.082 673.018 187.422 673.458 187.422C674.058 187.422 674.958 186.882 676.158 185.802C676.998 185.042 677.838 183.962 678.678 182.562C679.558 181.122 680.378 179.602 681.138 178.002C681.898 176.402 682.538 174.922 683.058 173.562C683.618 172.162 683.998 171.122 684.198 170.442C684.878 170.282 685.638 170.082 686.478 169.842C687.318 169.602 688.058 169.342 688.698 169.062C688.258 169.542 687.738 170.342 687.138 171.462C686.578 172.542 686.038 173.702 685.518 174.942C684.998 176.142 684.558 177.162 684.198 178.002C683.638 179.402 683.158 180.682 682.758 181.842C682.398 182.962 682.038 184.062 681.678 185.142C681.358 186.222 680.958 187.422 680.478 188.742C682.358 187.542 683.858 186.402 684.978 185.322C686.098 184.242 687.078 183.042 687.918 181.722C688.758 180.402 689.698 178.762 690.738 176.802C690.818 176.682 690.918 176.622 691.038 176.622C691.398 176.622 691.478 176.782 691.278 177.102C690.398 178.742 689.598 180.162 688.878 181.362C688.198 182.522 687.458 183.582 686.658 184.542C685.898 185.462 684.998 186.342 683.958 187.182C682.918 187.982 681.638 188.842 680.118 189.762C679.398 191.562 678.578 193.582 677.658 195.822C676.738 198.062 675.758 200.242 674.718 202.362C673.678 204.522 672.578 206.402 671.418 208.002C670.418 209.402 669.358 210.462 668.238 211.182C667.158 211.902 666.218 212.262 665.418 212.262ZM665.598 211.422C666.078 211.422 666.678 211.062 667.398 210.342C668.158 209.622 668.998 208.462 669.918 206.862C670.678 205.502 671.438 204.002 672.198 202.362C672.998 200.762 673.738 199.182 674.418 197.622C675.098 196.062 675.678 194.702 676.158 193.542C676.638 192.382 676.958 191.602 677.118 191.202C676.278 191.682 675.358 192.422 674.358 193.422C673.358 194.422 672.338 195.562 671.298 196.842C670.258 198.122 669.278 199.462 668.358 200.862C667.438 202.262 666.658 203.602 666.018 204.882C665.058 206.842 664.578 208.462 664.578 209.742C664.578 210.862 664.918 211.422 665.598 211.422Z" fill="#FFE4CC"/>
<path d="M74.6484 66.6887V85.1457H23.584V66.6887H74.6484ZM31.582 27.177V126.708H7.58789V27.177H31.582ZM90.7812 27.177V126.708H66.8555V27.177H90.7812ZM102.061 90.4778V89.0422C102.061 83.619 102.835 78.6288 104.385 74.0715C105.934 69.4686 108.213 65.481 111.221 62.1086C114.229 58.7362 117.943 56.1158 122.363 54.2473C126.784 52.3332 131.888 51.3762 137.676 51.3762C143.509 51.3762 148.636 52.3332 153.057 54.2473C157.523 56.1158 161.26 58.7362 164.268 62.1086C167.275 65.481 169.554 69.4686 171.104 74.0715C172.653 78.6288 173.428 83.619 173.428 89.0422V90.4778C173.428 95.8554 172.653 100.846 171.104 105.448C169.554 110.006 167.275 113.993 164.268 117.411C161.26 120.784 157.546 123.404 153.125 125.273C148.704 127.141 143.6 128.075 137.812 128.075C132.025 128.075 126.898 127.141 122.432 125.273C117.965 123.404 114.229 120.784 111.221 117.411C108.213 113.993 105.934 110.006 104.385 105.448C102.835 100.846 102.061 95.8554 102.061 90.4778ZM125.098 89.0422V90.4778C125.098 93.2577 125.303 95.8554 125.713 98.2707C126.123 100.686 126.807 102.805 127.764 104.628C128.721 106.405 130.02 107.795 131.66 108.798C133.301 109.801 135.352 110.302 137.812 110.302C140.228 110.302 142.233 109.801 143.828 108.798C145.469 107.795 146.768 106.405 147.725 104.628C148.682 102.805 149.365 100.686 149.775 98.2707C150.186 95.8554 150.391 93.2577 150.391 90.4778V89.0422C150.391 86.3534 150.186 83.8241 149.775 81.4543C149.365 79.039 148.682 76.9198 147.725 75.0969C146.768 73.2284 145.469 71.7701 143.828 70.7219C142.188 69.6737 140.137 69.1496 137.676 69.1496C135.26 69.1496 133.232 69.6737 131.592 70.7219C129.997 71.7701 128.721 73.2284 127.764 75.0969C126.807 76.9198 126.123 79.039 125.713 81.4543C125.303 83.8241 125.098 86.3534 125.098 89.0422ZM230.166 52.7434H251.084V123.837C251.084 130.673 249.512 136.461 246.367 141.2C243.223 145.986 238.825 149.609 233.174 152.07C227.568 154.576 221.006 155.829 213.486 155.829C210.16 155.829 206.764 155.396 203.301 154.53C199.837 153.71 196.602 152.48 193.594 150.839C190.586 149.198 188.057 147.17 186.006 144.755L195.645 131.22C197.513 133.316 199.86 135.094 202.686 136.552C205.511 138.056 208.838 138.808 212.666 138.808C215.993 138.808 218.773 138.215 221.006 137.03C223.285 135.846 225.016 134.114 226.201 131.835C227.386 129.602 227.979 126.891 227.979 123.7V70.2434L230.166 52.7434ZM181.016 90.6145V89.1789C181.016 83.5735 181.699 78.4693 183.066 73.8664C184.479 69.218 186.484 65.2304 189.082 61.9035C191.725 58.5311 194.915 55.9335 198.652 54.1106C202.389 52.2876 206.605 51.3762 211.299 51.3762C216.357 51.3762 220.505 52.356 223.74 54.3156C227.021 56.2297 229.642 58.9185 231.602 62.382C233.607 65.8456 235.156 69.9016 236.25 74.55C237.389 79.1529 238.346 84.1203 239.121 89.4524V91.1613C238.346 96.1744 237.275 100.914 235.908 105.38C234.587 109.801 232.855 113.72 230.713 117.138C228.571 120.556 225.882 123.245 222.646 125.204C219.456 127.118 215.628 128.075 211.162 128.075C206.514 128.075 202.321 127.141 198.584 125.273C194.893 123.404 191.725 120.784 189.082 117.411C186.484 114.039 184.479 110.074 183.066 105.517C181.699 100.96 181.016 95.9921 181.016 90.6145ZM204.053 89.1789V90.6145C204.053 93.3944 204.303 95.9693 204.805 98.3391C205.352 100.709 206.172 102.805 207.266 104.628C208.359 106.405 209.704 107.795 211.299 108.798C212.939 109.801 214.854 110.302 217.041 110.302C220.368 110.302 223.057 109.596 225.107 108.183C227.158 106.77 228.639 104.765 229.551 102.167C230.462 99.5695 230.85 96.5162 230.713 93.007V87.6067C230.804 84.5988 230.599 81.9556 230.098 79.677C229.596 77.3528 228.799 75.4159 227.705 73.8664C226.657 72.3169 225.244 71.1548 223.467 70.3801C221.735 69.5598 219.639 69.1496 217.178 69.1496C215.036 69.1496 213.145 69.6509 211.504 70.6535C209.863 71.6561 208.496 73.0689 207.402 74.8918C206.309 76.6692 205.465 78.7883 204.873 81.2492C204.326 83.6646 204.053 86.3078 204.053 89.1789ZM286.836 104.697L300.508 52.7434H314.932L309.805 78.7883L296.27 126.708H284.717L286.836 104.697ZM281.436 52.7434L289.912 104.286L290.869 126.708H276.855L259.355 52.7434H281.436ZM327.1 103.193L335.645 52.7434H357.725L340.361 126.708H326.348L327.1 103.193ZM316.572 52.7434L330.381 104.56L332.5 126.708H320.811L307.549 78.925L302.627 52.7434H316.572ZM404.482 108.114V77.6262C404.482 75.5298 404.186 73.7297 403.594 72.2258C403.001 70.7219 402.067 69.5598 400.791 68.7395C399.515 67.8736 397.806 67.4406 395.664 67.4406C393.932 67.4406 392.451 67.7369 391.221 68.3293C389.99 68.9218 389.056 69.8104 388.418 70.9953C387.78 72.1802 387.461 73.6841 387.461 75.507H364.424C364.424 72.0891 365.176 68.9218 366.68 66.0051C368.229 63.0429 370.417 60.468 373.242 58.2805C376.113 56.093 379.531 54.4068 383.496 53.2219C387.507 51.9914 391.973 51.3762 396.895 51.3762C402.773 51.3762 408.014 52.356 412.617 54.3156C417.266 56.2753 420.934 59.2147 423.623 63.134C426.312 67.0077 427.656 71.884 427.656 77.7629V108.046C427.656 112.877 427.93 116.545 428.477 119.052C429.023 121.513 429.798 123.678 430.801 125.546V126.708H407.695C406.602 124.43 405.781 121.65 405.234 118.368C404.733 115.042 404.482 111.624 404.482 108.114ZM407.285 81.5227L407.422 93.8274H397.236C395.094 93.8274 393.271 94.1236 391.768 94.716C390.309 95.3085 389.124 96.1288 388.213 97.177C387.347 98.1796 386.709 99.3189 386.299 100.595C385.934 101.871 385.752 103.215 385.752 104.628C385.752 105.995 386.071 107.226 386.709 108.32C387.393 109.368 388.304 110.188 389.443 110.78C390.583 111.373 391.859 111.669 393.271 111.669C395.824 111.669 397.988 111.191 399.766 110.234C401.589 109.231 402.979 108.023 403.936 106.611C404.893 105.198 405.371 103.876 405.371 102.646L410.43 112.079C409.518 113.902 408.47 115.748 407.285 117.616C406.146 119.485 404.71 121.217 402.979 122.812C401.292 124.361 399.219 125.637 396.758 126.64C394.297 127.597 391.312 128.075 387.803 128.075C383.245 128.075 379.053 127.141 375.225 125.273C371.442 123.404 368.411 120.807 366.133 117.48C363.854 114.107 362.715 110.234 362.715 105.859C362.715 102.03 363.398 98.6125 364.766 95.6047C366.178 92.5969 368.298 90.0448 371.123 87.9485C373.949 85.8521 377.549 84.257 381.924 83.1633C386.299 82.0695 391.449 81.5227 397.373 81.5227H407.285ZM463.682 71.0637V126.708H440.645V52.7434H462.178L463.682 71.0637ZM485.557 52.1965L485.146 73.593C484.235 73.5018 483.005 73.3879 481.455 73.2512C479.906 73.1145 478.607 73.0461 477.559 73.0461C474.87 73.0461 472.546 73.3651 470.586 74.0031C468.672 74.5956 467.077 75.507 465.801 76.7375C464.57 77.9224 463.659 79.4263 463.066 81.2492C462.52 83.0722 462.269 85.1913 462.314 87.6067L458.145 84.8723C458.145 79.9048 458.623 75.3931 459.58 71.3371C460.583 67.2356 461.995 63.7037 463.818 60.7414C465.641 57.7336 467.852 55.4322 470.449 53.8371C473.047 52.1965 475.964 51.3762 479.199 51.3762C480.339 51.3762 481.455 51.4445 482.549 51.5813C483.688 51.718 484.691 51.9231 485.557 52.1965ZM535.869 52.7434V68.7395H491.299V52.7434H535.869ZM500.664 34.3547H523.701V102.577C523.701 104.537 523.929 106.064 524.385 107.157C524.84 108.206 525.615 108.958 526.709 109.413C527.848 109.823 529.352 110.029 531.221 110.029C532.542 110.029 533.636 110.006 534.502 109.96C535.368 109.869 536.188 109.755 536.963 109.618V126.093C535.003 126.731 532.952 127.21 530.811 127.529C528.669 127.893 526.39 128.075 523.975 128.075C519.053 128.075 514.837 127.301 511.328 125.751C507.865 124.202 505.221 121.764 503.398 118.437C501.576 115.11 500.664 110.78 500.664 105.448V34.3547ZM583.789 105.927C583.789 104.651 583.356 103.557 582.49 102.646C581.67 101.689 580.212 100.823 578.115 100.048C576.019 99.2278 573.079 98.4074 569.297 97.5871C565.697 96.8124 562.301 95.787 559.111 94.511C555.967 93.2349 553.21 91.6854 550.84 89.8625C548.47 88.0396 546.602 85.8749 545.234 83.3684C543.913 80.8619 543.252 77.9908 543.252 74.7551C543.252 71.6106 543.913 68.6483 545.234 65.8684C546.602 63.0429 548.584 60.5591 551.182 58.4172C553.825 56.2297 557.038 54.5207 560.82 53.2903C564.603 52.0142 568.91 51.3762 573.74 51.3762C580.394 51.3762 586.136 52.4016 590.967 54.4524C595.798 56.4576 599.512 59.2831 602.109 62.9289C604.753 66.5292 606.074 70.6991 606.074 75.4387H583.037C583.037 73.5702 582.718 71.9751 582.08 70.6535C581.488 69.3319 580.508 68.3293 579.141 67.6457C577.773 66.9166 575.951 66.552 573.672 66.552C572.077 66.552 570.618 66.8482 569.297 67.4406C568.021 68.0331 566.995 68.8534 566.221 69.9016C565.446 70.9498 565.059 72.1802 565.059 73.593C565.059 74.5956 565.286 75.507 565.742 76.3274C566.243 77.1021 566.995 77.8313 567.998 78.5149C569.001 79.1529 570.277 79.7453 571.826 80.2922C573.376 80.7935 575.244 81.2492 577.432 81.6594C582.399 82.5709 587.048 83.8697 591.377 85.5559C595.706 87.2421 599.215 89.6347 601.904 92.7336C604.639 95.8326 606.006 100.002 606.006 105.243C606.006 108.525 605.254 111.555 603.75 114.335C602.246 117.07 600.081 119.485 597.256 121.581C594.43 123.632 591.035 125.227 587.07 126.366C583.105 127.506 578.639 128.075 573.672 128.075C566.608 128.075 560.638 126.822 555.762 124.316C550.885 121.764 547.194 118.573 544.688 114.745C542.227 110.872 540.996 106.952 540.996 102.988H562.461C562.552 105.266 563.099 107.135 564.102 108.593C565.15 110.051 566.54 111.122 568.271 111.806C570.003 112.489 572.008 112.831 574.287 112.831C576.383 112.831 578.115 112.535 579.482 111.943C580.895 111.35 581.966 110.553 582.695 109.55C583.424 108.502 583.789 107.294 583.789 105.927Z" fill="#FFE4CC"/>
</svg>
