<svg width="71" height="85" viewBox="0 0 71 85" fill="none" xmlns="http://www.w3.org/2000/svg">
<path d="M1.75869 64.8096L7.32061 72.6188C7.40277 72.7341 7.56855 72.7479 7.6685 72.6477L10.9089 69.3979C14.3402 73.9862 17.7271 75.6901 22.3466 77.4274C26.7354 79.078 30.0717 80.7285 33.3651 84.9105C33.5013 85.0835 33.7844 84.9892 33.7844 84.7687V53.5693C33.7844 53.4422 33.6801 53.3393 33.5534 53.3401C29.5963 53.3635 27.3716 53.5611 24.0623 55.6331C22.982 53.6345 22.0666 52.6466 20.0591 51.0448C22.6111 48.7742 23.347 46.8865 23.4834 42.679C23.4876 42.5499 23.3842 42.4417 23.2554 42.4417H6.46654C6.38444 42.4417 6.30865 42.4858 6.26792 42.5573L1.75869 50.4712C-0.60615 56.7695 -0.566224 59.8938 1.75869 64.8096Z" fill="#FFE4CC"/>
<path d="M69.2413 64.8097L63.6794 72.6188C63.5972 72.7342 63.4314 72.7479 63.3315 72.6477L60.0911 69.398C56.6598 73.9862 53.2729 75.6901 48.6534 77.4275C44.2646 79.078 40.9283 80.7285 37.6349 84.9105C37.4987 85.0835 37.2156 84.9892 37.2156 84.7687V53.5693C37.2156 53.4423 37.3199 53.3394 37.4466 53.3401C41.4037 53.3636 43.6284 53.5612 46.9377 55.6331C48.018 53.6345 48.9334 52.6467 50.9409 51.0448C48.3889 48.7742 47.653 46.8866 47.5166 42.679C47.5124 42.5499 47.6158 42.4417 47.7446 42.4417H64.5335C64.6156 42.4417 64.6914 42.4859 64.7321 42.5573L69.2413 50.4713C71.6061 56.7695 71.5662 59.8938 69.2413 64.8097Z" fill="#FFE4CC"/>
<path d="M7.47753 39.0005C8.86208 35.9239 10.9089 28.1033 10.337 26.3827C9.84789 24.9113 8.04942 29.8239 4.04621 28.1033C1.52811 25.578 4.77556 24.8317 2.85278 23.1228C2.23842 22.5767 1.75866 21.8599 1.75866 21.0366V12.0443C1.75866 8.60308 10.9089 10.3237 10.9089 2.86772C12.2251 0.253885 13.344 -0.00129144 15.4839 3.651e-05C18.9153 3.13898e-05 22.0606 5.16186 24.6341 6.88247C29.7811 10.3237 33.7843 7.45601 33.7843 12.0443V26.9562C30.0108 27.4946 27.986 27.1451 24.6341 24.6621L20.0591 29.2504C23.1227 32.6659 23.9241 35.2436 23.4834 39.0005H7.47753Z" fill="#FFE4CC"/>
<path d="M63.5224 39.0005C62.1379 35.9239 60.0911 28.1033 60.663 26.3827C61.1521 24.9112 62.9506 29.8239 66.9538 28.1033C69.4719 25.5779 66.2244 24.8317 68.1472 23.1228C68.7615 22.5767 69.2413 21.8599 69.2413 21.0366V12.0443C69.2413 8.60305 60.0911 10.3237 60.0911 2.86769C58.7748 0.253854 57.6559 -0.00132283 55.516 5.12029e-06C52.0847 0 48.9393 5.16183 46.3658 6.88244C41.2189 10.3237 37.2156 7.45598 37.2156 12.0443V26.9562C40.9891 27.4946 43.014 27.145 46.3658 24.6621L50.9409 29.2503C47.8772 32.6659 47.0758 35.2436 47.5166 39.0005H63.5224Z" fill="#FFE4CC"/>
<path d="M25.7779 30.3974C28.0655 30.3974 28.0655 49.8977 25.7779 49.8977H33.7843C32.0687 49.8977 32.6406 41.8682 32.6406 41.8682H38.3594C38.3594 41.8682 38.9313 49.8977 37.2156 49.8977H45.2221C42.9345 49.8977 42.9345 30.3974 45.2221 30.3974H37.2156C38.3594 30.3974 38.3594 38.4269 38.3594 38.4269H32.6406C32.6406 38.4269 32.0687 30.3974 33.7843 30.3974H25.7779Z" fill="#FFE4CC"/>
</svg>
