<svg width="139" height="104" viewBox="0 0 139 104" fill="none" xmlns="http://www.w3.org/2000/svg">
<path d="M3.82299 18.3307C23.3068 48.8965 54.6997 23.6641 65.9849 71.2517C66.0713 71.616 65.6665 71.9213 65.3593 71.7152C48.6144 60.479 42.3213 67.8292 34.0879 65.8964C33.7283 65.812 33.6912 65.3259 34.0234 65.1622C38.596 62.9086 40.5279 61.0919 41.5706 58.0972C36.9063 62.7515 25.7948 63.9779 17.2204 58.7552C16.8878 58.5526 17.0194 58.0465 17.4058 58.0154C24.2087 57.468 29.5477 55.5813 33.0814 53.0508C22.4067 57.1426 9.45421 53.3041 4.80007 44.4405C4.63214 44.1207 4.94011 43.7739 5.27719 43.8904C15.6544 47.4773 20.2564 47.2494 27.7252 46.0476C7.48958 45.2349 -4.88021 25.6855 3.22321 18.2341C3.40213 18.0695 3.69171 18.1248 3.82299 18.3307Z" fill="url(#paint0_radial_317_17)" fill-opacity="0.8"/>
<path d="M135.691 18.3307C116.207 48.8965 84.8139 23.6641 73.5287 71.2517C73.4423 71.616 73.8472 71.9213 74.1543 71.7152C90.8992 60.479 97.1923 67.8292 105.426 65.8964C105.785 65.812 105.822 65.3259 105.49 65.1622C100.918 62.9086 98.9857 61.0919 97.943 58.0972C102.607 62.7515 113.719 63.9779 122.293 58.7552C122.626 58.5526 122.494 58.0465 122.108 58.0154C115.305 57.468 109.966 55.5813 106.432 53.0508C117.107 57.1426 130.059 53.3041 134.714 44.4405C134.881 44.1207 134.574 43.7739 134.236 43.8904C123.859 47.4773 119.257 47.2494 111.788 46.0476C132.024 45.2349 144.394 25.6855 136.29 18.2341C136.111 18.0695 135.822 18.1248 135.691 18.3307Z" fill="url(#paint1_radial_317_17)" fill-opacity="0.8"/>
<path fill-rule="evenodd" clip-rule="evenodd" d="M70 103C71.1371 103 72.0588 102.078 72.0588 100.941V97.9836L78.67 100.668C79.5852 101.04 80.6322 100.641 81.0686 99.7553C81.5437 98.7906 81.1163 97.6247 80.1303 97.1957L76.1765 95.4754L81.1745 93.3008C81.6401 93.0982 81.9412 92.6388 81.9412 92.1311C81.9412 91.6234 81.6401 91.1641 81.1745 90.9615L76.1765 88.7869L80.1303 87.0666C81.1163 86.6376 81.5437 85.4716 81.0686 84.507C80.6322 83.6208 79.5852 83.2223 78.67 83.594L72.0588 86.2787V48.6557H73.6808C74.6043 48.6557 75.3529 47.9071 75.3529 46.9836C75.3529 46.0601 74.6043 45.3115 73.6808 45.3115H72.0588C72.0588 41.2632 75.25 36.7895 79.625 36.7895C85.9072 36.7895 91 31.5818 91 25.1579C91 18.7339 85.9072 13.5263 79.625 13.5263C79.0624 13.5263 78.5093 13.5681 77.9685 13.6488C78.4704 12.5208 78.75 11.2674 78.75 9.94737C78.75 5.00587 74.8325 1 70 1C65.1675 1 61.25 5.00587 61.25 9.94737C61.25 11.2674 61.5296 12.5208 62.0315 13.6488C61.4907 13.5681 60.9376 13.5263 60.375 13.5263C54.0928 13.5263 49 18.7339 49 25.1579C49 31.5818 54.0928 36.7895 60.375 36.7895C63.875 36.7895 67.9412 41.2632 67.9412 45.3115H66.3192C65.3957 45.3115 64.6471 46.0601 64.6471 46.9836C64.6471 47.9071 65.3957 48.6557 66.3192 48.6557H67.9412V100.941C67.9412 102.078 68.8629 103 70 103ZM72.0588 93.8033V90.459L77 92.1311L72.0588 93.8033ZM52.5 25.1579C52.5 29.6052 56.0258 33.2105 60.375 33.2105C62.1873 33.2105 63.8567 32.5845 65.1875 31.5324C63.3246 30.0597 62.125 27.752 62.125 25.1579C62.125 22.5638 63.3246 20.2561 65.1875 18.7834C63.8567 17.7313 62.1873 17.1053 60.375 17.1053C56.0258 17.1053 52.5 20.7105 52.5 25.1579ZM79.625 33.2105C83.9742 33.2105 87.5 29.6052 87.5 25.1579C87.5 20.7105 83.9742 17.1053 79.625 17.1053C77.8127 17.1053 76.1433 17.7313 74.8125 18.7834C76.6754 20.2561 77.875 22.5638 77.875 25.1579C77.875 27.752 76.6754 30.0597 74.8125 31.5324C76.1433 32.5845 77.8127 33.2105 79.625 33.2105ZM68.6865 33.099C69.1137 33.1724 69.5525 33.2105 70 33.2105C70.4475 33.2105 70.8863 33.1724 71.3135 33.099C72.1908 34.0588 73.2253 34.8665 74.375 35.4792C72.625 36.7895 70.875 38.5789 70 41.1311C69.125 38.5789 67.375 36.7895 65.625 35.4792C66.7747 34.8665 67.8092 34.0588 68.6865 33.099ZM70 15.3158C72.8995 15.3158 75.25 12.9123 75.25 9.94737C75.25 6.98247 72.8995 4.57895 70 4.57895C67.1005 4.57895 64.75 6.98247 64.75 9.94737C64.75 12.9123 67.1005 15.3158 70 15.3158ZM70 29.6316C72.4162 29.6316 74.375 27.6286 74.375 25.1579C74.375 22.6871 72.4162 20.6842 70 20.6842C67.5838 20.6842 65.625 22.6871 65.625 25.1579C65.625 27.6286 67.5838 29.6316 70 29.6316Z" fill="url(#paint2_linear_317_17)" stroke="white" stroke-width="0.5"/>
<defs>
<radialGradient id="paint0_radial_317_17" cx="0" cy="0" r="1" gradientUnits="userSpaceOnUse" gradientTransform="translate(69.3377 18.1377) rotate(90) scale(59.5114 100.393)">
<stop offset="0.447917" stop-color="white" stop-opacity="0.5"/>
<stop offset="1" stop-color="white" stop-opacity="0"/>
</radialGradient>
<radialGradient id="paint1_radial_317_17" cx="0" cy="0" r="1" gradientUnits="userSpaceOnUse" gradientTransform="translate(69.3377 18.1377) rotate(90) scale(59.5114 100.393)">
<stop offset="0.447917" stop-color="white" stop-opacity="0.5"/>
<stop offset="1" stop-color="white" stop-opacity="0"/>
</radialGradient>
<linearGradient id="paint2_linear_317_17" x1="70" y1="1" x2="70" y2="103" gradientUnits="userSpaceOnUse">
<stop stop-color="#FFE4CC"/>
<stop offset="1" stop-color="#FFE4CC" stop-opacity="0"/>
</linearGradient>
</defs>
</svg>
